<svg width="39" height="26" viewBox="0 0 39 26" fill="none" xmlns="http://www.w3.org/2000/svg">
<g id="Group">
<path id="XMLID_4_" d="M35.5079 0.516296H3.49312C3.35978 0.516296 3.22621 0.516296 3.09311 0.517074C2.9806 0.517875 2.86835 0.519124 2.7561 0.522187C2.51129 0.528808 2.26439 0.543251 2.02264 0.5867C1.77703 0.630902 1.54848 0.703001 1.32551 0.816523C1.10632 0.927994 0.905639 1.0738 0.73173 1.24778C0.557746 1.42176 0.411945 1.62211 0.300497 1.84154C0.186952 2.06451 0.114805 2.29313 0.0709093 2.53893C0.0272278 2.78074 0.0126877 3.0276 0.00609037 3.27215C0.00307444 3.3844 0.00178089 3.49665 0.00104811 3.60887C0.000270569 3.74226 0.00052975 3.87555 0.00052975 4.00917V21.9911C0.00052975 22.1248 0.000270569 22.2578 0.00104811 22.3915C0.00178089 22.5037 0.00307444 22.6159 0.00609037 22.7282C0.0126877 22.9725 0.0272278 23.2194 0.0709093 23.4611C0.114805 23.707 0.186952 23.9355 0.300497 24.1585C0.411945 24.378 0.557746 24.5786 0.73173 24.7523C0.905639 24.9266 1.10632 25.0723 1.32551 25.1835C1.54848 25.2973 1.77703 25.3695 2.02264 25.4136C2.26439 25.4568 2.51129 25.4715 2.7561 25.4781C2.86835 25.4807 2.9806 25.4822 3.09311 25.4827C3.22621 25.4837 3.35978 25.4837 3.49312 25.4837H35.5079C35.641 25.4837 35.7746 25.4837 35.9076 25.4827C36.0199 25.4822 36.1322 25.4807 36.2449 25.4781C36.4892 25.4715 36.7361 25.4568 36.9784 25.4136C37.2237 25.3695 37.4523 25.2973 37.6753 25.1835C37.8947 25.0723 38.0948 24.9266 38.2691 24.7523C38.4428 24.5786 38.5886 24.378 38.7003 24.1585C38.8141 23.9355 38.8862 23.707 38.9298 23.4611C38.9736 23.2194 38.9877 22.9725 38.9944 22.7282C38.9974 22.6159 38.9989 22.5037 38.9995 22.3915C39.0005 22.2578 39.0005 22.1248 39.0005 21.9911V4.00917C39.0005 3.87555 39.0005 3.74226 38.9995 3.60887C38.9989 3.49665 38.9974 3.3844 38.9944 3.27215C38.9877 3.0276 38.9736 2.78074 38.9298 2.53893C38.8862 2.29313 38.8141 2.06451 38.7003 1.84154C38.5886 1.62211 38.4428 1.42176 38.2691 1.24778C38.0948 1.0738 37.8947 0.927994 37.6753 0.816523C37.4523 0.703001 37.2237 0.630902 36.9784 0.5867C36.7361 0.543251 36.4892 0.528808 36.2449 0.522187C36.1322 0.519124 36.0199 0.517875 35.9076 0.517074C35.7746 0.516296 35.641 0.516296 35.5079 0.516296Z" fill="black"/>
<path id="XMLID_3_" d="M35.5077 1.34845L35.9015 1.3492C36.0082 1.34996 36.1149 1.35111 36.2222 1.35403C36.4088 1.35908 36.6271 1.36918 36.8306 1.40566C37.0075 1.43751 37.1558 1.48596 37.2982 1.55843C37.4387 1.62985 37.5675 1.72344 37.6799 1.83571C37.7928 1.94874 37.8865 2.07772 37.9589 2.21982C38.0309 2.36107 38.0791 2.50871 38.1107 2.68689C38.1471 2.88815 38.1572 3.10704 38.1623 3.29481C38.1652 3.40079 38.1666 3.50677 38.1671 3.61527C38.1681 3.74649 38.1681 3.87764 38.1681 4.00911V21.9911C38.1681 22.1226 38.1681 22.2535 38.1671 22.3875C38.1666 22.4934 38.1652 22.5994 38.1623 22.7056C38.1572 22.8931 38.1471 23.1119 38.1103 23.3155C38.0791 23.4912 38.031 23.6389 37.9585 23.7808C37.8863 23.9226 37.7928 24.0514 37.6804 24.1637C37.5673 24.2768 37.439 24.3702 37.2968 24.4422C37.1555 24.5144 37.0074 24.5627 36.8322 24.5943C36.6246 24.6313 36.3972 24.6414 36.2259 24.6461C36.1181 24.6485 36.0109 24.65 35.901 24.6505C35.7701 24.6515 35.6387 24.6515 35.5077 24.6515H3.49292C3.49118 24.6515 3.48948 24.6515 3.48772 24.6515C3.35827 24.6515 3.22856 24.6515 3.09675 24.6505C2.98929 24.65 2.88206 24.6485 2.77838 24.6462C2.60318 24.6414 2.37559 24.6313 2.16968 24.5945C1.99304 24.5627 1.84495 24.5144 1.70179 24.4413C1.56092 24.3698 1.43267 24.2766 1.31955 24.1633C1.2073 24.0513 1.11401 23.9228 1.04189 23.7809C0.969697 23.639 0.921395 23.4909 0.889636 23.3131C0.852924 23.1099 0.84284 22.892 0.8378 22.7058C0.834923 22.5991 0.833721 22.4925 0.833038 22.3866L0.83252 22.0737L0.832543 21.9911V4.00911L0.83252 3.9265L0.833014 3.61429C0.833721 3.50767 0.834923 3.40107 0.8378 3.29455C0.84284 3.10815 0.852924 2.89016 0.88994 2.68521C0.921419 2.50899 0.969697 2.36088 1.04227 2.21836C1.11383 2.07748 1.20727 1.94888 1.32011 1.83606C1.4325 1.72363 1.56117 1.63016 1.70295 1.55806C1.84458 1.48593 1.99295 1.43751 2.16959 1.40573C2.37312 1.36916 2.59156 1.35908 2.77864 1.35401C2.88528 1.35111 2.99193 1.34996 3.09777 1.34923L3.49292 1.34845H35.5077Z" fill="white"/>
<g id="Group_2">
<g id="Group_3">
<path id="Vector" d="M10.6473 8.91381C10.9812 8.49614 11.2078 7.93533 11.148 7.36224C10.6592 7.38655 10.0627 7.68474 9.71733 8.10274C9.40724 8.46069 9.13279 9.04499 9.20434 9.59405C9.75307 9.64164 10.3013 9.31977 10.6473 8.91381Z" fill="black"/>
<path id="Vector_2" d="M11.1417 9.7013C10.3448 9.65383 9.66724 10.1536 9.28668 10.1536C8.90592 10.1536 8.32316 9.72522 7.69286 9.73677C6.87249 9.74881 6.11128 10.2127 5.69497 10.9504C4.83871 12.4262 5.469 14.6154 6.30168 15.8174C6.70605 16.412 7.19337 17.0668 7.83551 17.0433C8.44221 17.0195 8.68002 16.6504 9.41749 16.6504C10.1544 16.6504 10.3686 17.0433 11.0109 17.0314C11.6769 17.0195 12.0933 16.4364 12.4976 15.8412C12.9615 15.1633 13.1514 14.5087 13.1634 14.4728C13.1514 14.4609 11.8791 13.9728 11.8673 12.5093C11.8553 11.2838 12.8662 10.7009 12.9138 10.6648C12.3429 9.82042 11.4509 9.72522 11.1417 9.7013Z" fill="black"/>
</g>
<g id="Group_4">
<path id="Vector_3" d="M18.08 8.04285C19.8121 8.04285 21.0182 9.23675 21.0182 10.975C21.0182 12.7194 19.7873 13.9195 18.0366 13.9195H16.1189V16.9692H14.7334V8.04285L18.08 8.04285ZM16.1189 12.7565H17.7087C18.915 12.7565 19.6016 12.1071 19.6016 10.9812C19.6016 9.85542 18.915 9.21205 17.7149 9.21205H16.1189V12.7565Z" fill="black"/>
<path id="Vector_4" d="M21.3804 15.1197C21.3804 13.9814 22.2526 13.2825 23.7992 13.1958L25.5806 13.0907V12.5897C25.5806 11.8659 25.0919 11.4329 24.2755 11.4329C23.5021 11.4329 23.0196 11.804 22.9022 12.3855H21.6402C21.7145 11.2101 22.7165 10.3441 24.3249 10.3441C25.9023 10.3441 26.9106 11.1792 26.9106 12.4845V16.9693H25.63V15.8991H25.5992C25.222 16.6229 24.3991 17.0806 23.5455 17.0806C22.2712 17.0806 21.3804 16.2888 21.3804 15.1197ZM25.5806 14.5321V14.0187L23.9784 14.1176C23.1804 14.1733 22.7289 14.5259 22.7289 15.0826C22.7289 15.6517 23.199 16.0229 23.9166 16.0229C24.8506 16.0229 25.5806 15.3795 25.5806 14.5321Z" fill="black"/>
<path id="Vector_5" d="M28.1194 19.3632V18.2806C28.2182 18.3053 28.4409 18.3053 28.5523 18.3053C29.1709 18.3053 29.505 18.0456 29.709 17.3775C29.709 17.3651 29.8267 16.9816 29.8267 16.9754L27.4761 10.4615H28.9234L30.5691 15.7568H30.5936L32.2393 10.4615H33.6496L31.2122 17.3094C30.6557 18.8869 30.0123 19.3941 28.6638 19.3941C28.5523 19.3941 28.2182 19.3817 28.1194 19.3632Z" fill="black"/>
</g>
</g>
</g>
</svg>
